# xmcd
#
# Track frame offsets: 
#        150
#        13779
#        27353
#        38365
#        52441
#        64363
#        80149
#        94679
#        107494
#        119474
#        134343
#        148128
#        159937
#        173043
#        186202
#        200964
#
# Disc length: 2824 seconds
#
# Revision: 1
# Processed by: cddbd v1.5.2PL0 Copyright (c) Steve Scherf et al.
# Submitted via: ExactAudioCopy v0.99pb3
#
DISCID=e90b0610
DTITLE=Shorty Rogers - Creative West Coast Swing  Vol - 1
DYEAR=1900
DGENRE=Jazz
TTITLE0=Popo
TTITLE1=Over the Rainbow
TTITLE2=Didi
TTITLE3=Sam and the Lady
TTITLE4=Apropos
TTITLE5=Bunny
TTITLE6=Piruette
TTITLE7=Powder Puff
TTITLE8=The Pesky Serpent
TTITLE9=Diablo's Dance
TTITLE10=Mambo Del Crow
TTITLE11=Indian Club
TTITLE12=Hip Boots
TTITLE13=Blue Fairy Boogie
TTITLE14=Double Clutch
TTITLE15=Breakfast Ball
EXTD=
EXTT0=
EXTT1=
EXTT2=
EXTT3=
EXTT4=
EXTT5=
EXTT6=
EXTT7=
EXTT8=
EXTT9=
EXTT10=
EXTT11=
EXTT12=
EXTT13=
EXTT14=
EXTT15=
PLAYORDER=
